<svg width="704.97211" height="802.20099" viewBox="0 0 704.97211 802.20099" fill="none" xmlns="http://www.w3.org/2000/svg">
  <path d="M 702,493.22 H 69 l 275.836,42 z" fill="#cccfde" />
  <path
     d="m 615.416,165.669 -21.936,46.533 c -0.131,0.278 0.191,0.55 0.443,0.374 l 38.201,-26.663 c 0.474,-0.331 0.569,-0.994 0.207,-1.445 L 617.1,165.47 c -0.462,-0.577 -1.369,-0.47 -1.684,0.199 z"
     fill="#5282b2" />
  <path
     d="m 534.584,165.669 21.936,46.533 c 0.131,0.278 -0.191,0.55 -0.443,0.374 l -38.201,-26.663 c -0.474,-0.331 -0.569,-0.994 -0.207,-1.445 L 532.9,165.47 c 0.462,-0.577 1.369,-0.47 1.684,0.199 z"
     fill="#3c6696" />
  <path
     d="m 682,217.22 -54,19 46.443,-3.995 c 1.146,-0.099 2.134,-0.843 2.545,-1.916 z"
     fill="#325a8d" />
  <path
     d="m 683.923,206.958 -85.839,30.521 c -0.329,0.117 -0.226,0.607 0.122,0.582 l 29.492,-2.127 53.774,-18.285 3.716,-9.38 c 0.317,-0.799 -0.455,-1.599 -1.265,-1.311 z"
     fill="#93b7d9" />
  <path
     d="m 467,217.22 53,18 -45.567,-3.784 c -1.136,-0.094 -2.12,-0.824 -2.54,-1.883 z"
     fill="#254776" />
  <path
     d="m 465.086,207.939 82.763,28.539 c 0.332,0.115 0.232,0.608 -0.118,0.583 l -28.373,-1.984 -51.981,-17.143 -3.542,-8.671 c -0.325,-0.796 0.439,-1.604 1.251,-1.324 z"
     fill="#3c6696" />
  <path
     d="M 701.972,259.22 H 590 l 87.104,26.546 27.327,34.454 0.541,-57.972 c 0.015,-1.668 -1.332,-3.028 -3,-3.028 z"
     fill="#93b7d9" />
  <path
     d="M 589.291,259.22 H 499 l 73.255,22.226 104.487,136.774 H 701 c 1.657,0 3,-1.343 3,-3 v -95.022 l -27.258,-34.763 z"
     fill="#5282b2" />
  <path
     d="m 438,262.22 v 48.745 l 171.852,85.294 49.508,65.961 V 417.867 H 677 L 571.726,280.828 499.457,259.22 H 441 c -1.657,0 -3,1.343 -3,3 z"
     fill="#3c6696" />
  <path
     d="M 438,415.815 V 310.22 L 609.573,395.504 659,461.457 V 480.22 L 598.211,418.815 H 441 c -1.657,0 -3,-1.343 -3,-3 z"
     fill="#254776" />
  <path
     d="M 265.854,423.584 244,461.22 257.033,366.356 278,365.22 266.198,422.681 c -0.065,0.318 -0.181,0.623 -0.344,0.903 z"
     fill="#6a96c1" />
  <path
     d="m 380.853,440.872 -30.984,-29.652 -2.869,82 h 26.393 l 8.344,-49.684 c 0.165,-0.98 -0.167,-1.977 -0.884,-2.664 z"
     fill="#254776" />
  <path
     d="M 219,130.251 206.062,105.22 201,222.98 l 12.938,10.24 z"
     fill="#5282b2" />
  <path
     d="m 401,130.707 6.315,-17.487 24.685,5.641 -4.895,13.95 c -0.488,1.389 -1.91,2.219 -3.359,1.96 z"
     fill="#254776" />
  <path
     d="m 259,331.976 -16.517,-75.209 -10.251,-8.547 3.417,96.291 -14.238,66.093 L 173,493.22 h 23.921 z"
     fill="#254776" />
  <path
     d="m 99,100.019 50.719,10.79 c 1.557,0.331 3.102,-0.612 3.519,-2.148 l 11.777,-43.353296 30.73,8.5355 10.244,15.9329 V 105.709 l 12.711,24.314 c 0.248,0.474 0.364,1.005 0.338,1.539 l -5.082,102.179 27.675,23.245 c 0.506,0.425 0.857,1.004 1,1.649 l 16.088,72.666 c 0.128,0.576 0.082,1.176 -0.13,1.727 L 196.884,493.22 h 44.958 l -9.106,-13.657 11.382,-18.209 13.658,-95.028 44.959,-2.276 77.44,77.432 c 0.686,0.686 0.998,1.663 0.837,2.62 l -8.279,49.118 H 412 l -13.658,-17.071 v -25.037 l -139.997,-211.111 67.889,-16.83 c 0.631,-0.157 1.193,-0.514 1.604,-1.017 l 74.487,-91.408 5.691,-17.64 -274.871,-60.885996 -17.072,33.0039 z M 239.854,98.220004 366,123.329 l -17.999,50.61 c -0.175,0.49 -0.474,0.927 -0.868,1.267 l -31.462,27.116 c -0.662,0.57 -1.54,0.823 -2.404,0.694 l -6.306,-0.946 c -1.914,-0.287 -3.06,-2.284 -2.341,-4.081 l 5.251,-13.124 c 0.126,-0.315 0.198,-0.65 0.212,-0.989 l 1.561,-37.45 c 0.071,-1.704 -1.291,-3.124 -2.997,-3.124 h -34.325 c -1.45,0 -2.692,1.036 -2.951,2.463 l -9.346,51.388 c -0.274,1.505 -1.635,2.563 -3.16,2.456 L 237,198.084 Z"
     style="clip-rule:evenodd;fill:#3c6696;fill-rule:evenodd" />
  <path
     d="m 239,97.591404 1.435,-11.2297 c 0.147,-1.1554 1.247,-1.9407 2.388,-1.7052 L 363.399,109.547 c 0.867,0.179 1.514,0.907 1.589,1.789 l 0.786,9.226 c 0.113,1.329 -1.082,2.394 -2.389,2.13 z"
     fill="#254776" />
  <path
     d="M 375.606,201.853 401,131.22 327.736,222.078 c -0.426,0.527 -1.018,0.895 -1.679,1.044 l -68.633,15.394 c -0.686,0.154 -1.003,0.948 -0.612,1.532 l 141.345,211.172 -0.569,-55.231 -97.804,-131.531 44.534,-27.095 c 0.257,-0.156 0.489,-0.35 0.688,-0.576 l 30.025,-33.962 c 0.252,-0.284 0.447,-0.614 0.575,-0.972 z"
     fill="#5282b2" />
  <path
     d="m 272.911,198.694 -9.235,-11.474 -1.832,10.247 c -0.265,1.478 -1.58,2.533 -3.08,2.469 L 235,198.932 l 29.717,15.715 c 1.584,0.838 3.546,0.108 4.197,-1.562 l 4.455,-11.42 c 0.39,-1.001 0.216,-2.134 -0.458,-2.971 z"
     fill="#254776" />
  <path
     d="M 301.334,175.101 299,143.22 h 9.869 c 1.707,0 3.07,1.422 2.997,3.128 l -1.617,37.874 c -0.014,0.334 -0.084,0.662 -0.207,0.973 l -2.769,7.025 -5.775,-16.338 c -0.089,-0.252 -0.144,-0.515 -0.164,-0.781 z"
     fill="#87add2" />
  <path
     d="m 299,143.22 h -13.714 l -10.286,64 28.571,-4.613 3.429,-10.378 -5.588,-16.352 c -0.084,-0.245 -0.136,-0.5 -0.154,-0.758 z"
     fill="#5282b2" />
  <path
     d="m 169.019,45.384504 -58.634,-13.1645 -11.385,67.539 17.078,-13.7364 17.077,-33.7697 299.429,66.967096 2.231,-5.981 c 0.63,-1.688 -0.36,-3.547 -2.112,-3.966 l -17.853,-4.274 c -1.548,-0.371 -2.537,-1.885 -2.254,-3.452 l 0.102,-0.563 c 0.294,-1.625996 -0.783,-3.183996 -2.409,-3.483596 l -29.266,-5.3948 c -1.182,-0.2179 -2.38,0.2907 -3.044,1.2925 l -1.169,1.7639 c -0.692,1.0437 -1.96,1.5477 -3.18,1.2643 l -131.133,-30.4696 c -1.359,-0.3158 -2.321,-1.5269 -2.321,-2.9222 v -4.8499 c 0,-1.4471 -1.033,-2.6879 -2.456,-2.9503 l -30.518,-5.6255 c -0.615,-0.1133 -1.182,0.3585 -1.182,0.9834 v 3.6215 c 0,1.9266 -1.79,3.3538 -3.668,2.9246 l -33.903,-7.7472 z"
     fill="#5282b2" />
  <path
     d="M 168.603,46.220004 110,33.454604 115.666,2.4615338 c 0.318,-1.73893997 2.063,-2.82739997 3.764,-2.34812697 L 173.209,15.261104 c 1.557,0.4384 2.486,2.0315 2.101,3.6019 z"
     fill="#729cc6" />
  <path
     d="m 206,89.220004 -45,-10.2273 3.722,-13.7889 c 0.146,-0.5403 0.706,-0.8558 1.244,-0.6998 l 29.23,8.4819 c 0.721,0.209 1.337,0.6805 1.727,1.3213 z"
     fill="#254776" />
  <path
     d="M 339.757,244.424 345,237.22 301.04,261.948 c -1.6,0.9 -2.024,3.012 -0.895,4.459 l 33.392,42.813 5.657,-63.298 c 0.049,-0.541 0.243,-1.059 0.563,-1.498 z"
     fill="#93b7d9" />
  <path
     d="m 0,614.091 h 62.8105 c 28.5869,0 45.0945,18.021 45.0945,38.044 v 8.409 c 0,8.41 -4.026,16.019 -11.2733,22.025 13.2873,6.408 20.9373,17.621 20.9373,29.634 v 5.607 c 0,22.025 -16.508,40.847 -45.498,40.847 H 0 Z m 33.821,27.231 v 30.035 h 24.9632 c 8.8579,0 15.3,-4.005 15.3,-12.014 v -5.607 c 0,-8.409 -6.8447,-12.013 -15.3,-12.013 H 33.821 Z m 0,56.865 v 33.639 h 34.2237 c 8.8579,0 15.7028,-4.005 15.7028,-12.414 v -8.81 c 0,-8.41 -7.2474,-12.415 -16.1053,-12.415 z"
     fill="#3c6696" />
  <path
     d="M 415.409,759.528 V 614.091 h 34.938 l 40.56,79.146 40.962,-79.146 H 565.2 v 145.437 h -33.331 v -81.557 l -25.702,50.219 h -31.725 l -25.3,-50.219 v 81.557 z"
     fill="#3c6696" />
  <path
     d="m 655.354,802.201 -21.339,-41.728 h -0.805 c -29.795,0 -47.108,-16.05 -47.108,-32.902 v -81.45 c 0,-16.852 17.715,-32.901 47.108,-32.901 h 25.365 c 28.587,0 45.095,16.049 45.095,32.901 v 81.45 c 0,14.846 -12.079,28.488 -33.821,32.099 l 15.3,30.494 z m -0.402,-69.012 c 8.858,0 15.702,-4.013 15.702,-12.439 v -68.209 c 0,-8.426 -7.247,-12.438 -15.702,-12.438 h -19.326 c -8.456,0 -15.301,4.012 -15.301,12.438 v 68.209 c 0,8.426 7.248,12.439 15.301,12.439 z"
     fill="#3c6696" />
  <path
     d="m 324.047,760.399 c -29.794,0 -47.108,-16.042 -47.108,-32.885 v -81.409 c 0,-16.844 17.716,-32.885 47.108,-32.885 h 25.366 c 28.587,0 45.095,16.041 45.095,32.885 v 81.409 c 0,16.843 -16.508,32.885 -45.095,32.885 z m 21.34,-27.271 c 8.858,0 15.703,-4.01 15.703,-12.432 v -68.175 c 0,-8.422 -7.248,-12.432 -15.703,-12.432 h -19.326 c -8.456,0 -15.3,4.01 -15.3,12.432 v 68.175 c 0,8.422 7.247,12.432 15.3,12.432 z"
     fill="#3c6696" />
  <path
     d="m 185.578,760.399 c -29.795,0 -47.108,-16.042 -47.108,-32.885 v -81.409 c 0,-16.844 17.716,-32.885 47.108,-32.885 h 25.366 c 28.586,0 45.094,16.041 45.094,32.885 v 81.409 c 0,16.843 -16.508,32.885 -45.094,32.885 z m 21.339,-27.271 c 8.858,0 15.703,-4.01 15.703,-12.432 v -68.175 c 0,-8.422 -7.248,-12.432 -15.703,-12.432 h -19.326 c -8.455,0 -15.3,4.01 -15.3,12.432 v 68.175 c 0,8.422 7.247,12.432 15.3,12.432 z"
     fill="#3c6696" />
</svg>
