<svg width="10" height="11" viewBox="0 0 10 11" version="1.1" xmlns="http://www.w3.org/2000/svg"
     xmlns:xlink="http://www.w3.org/1999/xlink">
    <g id="Canvas" transform="translate(-1250 -42)">
        <g id="Vector">
            <path transform="matrix(-4.37114e-08 1 -1 -4.37114e-08 1260 42)" d="M 10.8211 5.47976C 10.8256 5.47544 10.8256 5.47545 10.8301 5.47113C 10.8435 5.45386 10.8569 5.44091 10.8659 5.42364C 10.8703 5.41932 10.8703 5.415 10.8748 5.41068C 10.8837 5.39342 10.8972 5.37615 10.9061 5.35888C 10.9061 5.35456 10.9106 5.35024 10.9106 5.35024C 10.9195 5.33297 10.9285 5.3157 10.9374 5.29412C 10.9374 5.2898 10.9374 5.2898 10.9419 5.28548C 10.9508 5.26821 10.9553 5.24663 10.9642 5.22504C 10.9642 5.22072 10.9642 5.21641 10.9687 5.21641C 10.9732 5.19482 10.9821 5.17755 10.9821 5.15596C 10.9821 5.14733 10.9821 5.14301 10.9866 5.13438C 10.9911 5.11711 10.9911 5.09984 10.9955 5.08257C 11 5.05666 11 5.03508 11 5.00917C 11 4.98327 11 4.96168 10.9955 4.93578C 10.9955 4.91851 10.9911 4.90124 10.9866 4.88397C 10.9866 4.87534 10.9866 4.87102 10.9821 4.86238C 10.9776 4.8408 10.9732 4.82353 10.9687 4.80194C 10.9687 4.79763 10.9687 4.79331 10.9642 4.79331C 10.9598 4.77172 10.9508 4.75445 10.9419 4.73287C 10.9419 4.72855 10.9419 4.72855 10.9374 4.72423C 10.9285 4.70696 10.9195 4.68537 10.9106 4.66811C 10.9106 4.66379 10.9061 4.65947 10.9061 4.65947C 10.8972 4.6422 10.8882 4.62493 10.8748 4.60766C 10.8703 4.60335 10.8703 4.59903 10.8659 4.59471C 10.8524 4.57744 10.8435 4.56017 10.8301 4.54722C 10.8256 4.5429 10.8256 4.5429 10.8211 4.53859C 10.8033 4.52132 10.7898 4.49973 10.7675 4.48246L 6.34534 0.216945C 6.04576 -0.0723151 5.55839 -0.0723151 5.25881 0.216945C 4.95923 0.506206 4.95923 0.976794 5.25881 1.26605L 8.37086 4.27091L 0.76907 4.27091C 0.344293 4.27091 -5.75487e-08 4.60335 -5.75487e-08 5.00917C -5.75487e-08 5.41932 0.344293 5.75175 0.76907 5.75175C 1.19385 5.75175 8.37533 5.75175 8.37533 5.75175L 5.28563 8.73502C 4.98605 9.02428 4.98605 9.49487 5.28563 9.78413C 5.43319 9.9266 5.62993 10 5.82667 10C 6.02341 10 6.22015 9.9266 6.3677 9.78413L 10.763 5.54021C 10.7854 5.5143 10.8033 5.49703 10.8211 5.47976Z"/>
        </g>
    </g>
</svg>
